<svg width="38" height="36" viewBox="0 0 38 36" fill="none" xmlns="http://www.w3.org/2000/svg">
<path d="M17.8313 12.9505C18.7327 10.4121 19.1835 9.14289 20.2703 8.6408C21.3571 8.1387 22.6556 8.59982 25.2526 9.52205L32.139 11.9675C34.736 12.8897 36.0345 13.3508 36.5613 14.4259C37.088 15.501 36.6373 16.7702 35.7359 19.3087L32.8676 27.3859C31.9661 29.9244 31.5154 31.1936 30.4286 31.6957C29.3418 32.1978 28.0433 31.7366 25.4463 30.8144L18.5599 28.369C15.9629 27.4468 14.6644 26.9856 14.1376 25.9105C13.6108 24.8355 14.0616 23.5662 14.963 21.0278L17.8313 12.9505Z" fill="#0C0000"/>
<path d="M10.1348 5.38484C11.0362 2.8464 11.4869 1.57718 12.5737 1.07509C13.6606 0.573 14.9591 1.03411 17.5561 1.95634L24.4425 4.40178C27.0395 5.32401 28.338 5.78512 28.8648 6.86021C29.3915 7.9353 28.9408 9.20452 28.0394 11.743L25.171 19.8202C24.2696 22.3587 23.8189 23.6279 22.7321 24.13C21.6452 24.6321 20.3467 24.1709 17.7497 23.2487L10.8633 20.8033C8.26633 19.8811 6.96782 19.4199 6.44107 18.3448C5.91431 17.2698 6.36503 16.0005 7.26645 13.4621L10.1348 5.38484Z" fill="#150000"/>
<path d="M11.1021 2.66074C11.3218 2.04214 11.4316 1.73284 11.594 1.50473C12.0346 0.885696 12.7971 0.55075 13.5944 0.626058C13.8881 0.653809 14.2168 0.770511 14.874 1.00391C15.5313 1.23732 15.8599 1.35402 16.1054 1.51776C16.7716 1.96212 17.1521 2.70297 17.1036 3.46124C17.0857 3.74067 16.9759 4.04997 16.7562 4.66857L6.59897 33.2716C6.3793 33.8902 6.26946 34.1995 6.1071 34.4276C5.66649 35.0466 4.90396 35.3816 4.10675 35.3063C3.81297 35.2785 3.48434 35.1618 2.82707 34.9284C2.1698 34.695 1.84117 34.5783 1.59569 34.4145C0.929523 33.9702 0.54902 33.2293 0.597511 32.4711C0.615381 32.1916 0.725217 31.8823 0.944891 31.2637L11.1021 2.66074Z" fill="#150000"/>
</svg>
